# xmcd
#
# Track frame offsets:
# 150
# 13358
# 29937
# 42727
# 52953
# 63652
# 81067
# 92408
# 108625
# 124674
# 138130
# 143901
# 158334
# 173436
# 190015
# 201300
# 215177
# 229220
# 238471
# 253016
# 268815
# 277926
#
# Disc length: 3955 seconds
#
#
# Revision: 0
# Processed by: cddbd v1.5.2PL0 Copyright (c) Steve Scherf et al.
# Submitted via: FreeRIP 2.945 
#
DISCID=4b0f7116
DTITLE=Herriot-J1992 - Every-Living-Thing07
DYEAR=1992
DGENRE=Jungle
TTITLE0=ELT 0701
TTITLE1=ELT 0702
TTITLE2=ELT 0703
TTITLE3=ELT 0704
TTITLE4=ELT 0705
TTITLE5=ELT 0706
TTITLE6=ELT 0707
TTITLE7=ELT 0708
TTITLE8=ELT 0709
TTITLE9=ELT 0710
TTITLE10=ELT 0711
TTITLE11=ELT 0712
TTITLE12=ELT 0713
TTITLE13=ELT 0714
TTITLE14=ELT 0715
TTITLE15=ELT 0716
TTITLE16=ELT 0717
TTITLE17=ELT 0718
TTITLE18=ELT 0719
TTITLE19=ELT 0720
TTITLE20=ELT 0721
TTITLE21=ELT 0722
EXTD=Every Living Thing by James Herriot 10 CDs\nread by Christopher Timothy BBC Audiobooks\njungle country
EXTT0=
EXTT1=
EXTT2=
EXTT3=
EXTT4=
EXTT5=
EXTT6=
EXTT7=
EXTT8=
EXTT9=
EXTT10=
EXTT11=
EXTT12=
EXTT13=
EXTT14=
EXTT15=
EXTT16=
EXTT17=
EXTT18=
EXTT19=
EXTT20=
EXTT21=
PLAYORDER=
